<?xml version="1.0" encoding="UTF-8"?>
<svg version="1.1" xmlns="http://www.w3.org/2000/svg" width="500" height="228">

<path d="M0 0 C7.92 0 15.84 0 24 0 C24 2.31 24 4.62 24 7 C25.17973389 6.97643433 25.17973389 6.97643433 26.38330078 6.95239258 C29.96379338 6.88984085 33.54417076 6.85094449 37.125 6.8125 C38.98125 6.77479492 38.98125 6.77479492 40.875 6.73632812 C42.07382813 6.72666016 43.27265625 6.71699219 44.5078125 6.70703125 C45.60754395 6.6913208 46.70727539 6.67561035 47.84033203 6.65942383 C51.56862376 7.06129116 53.85110197 7.9689967 57 10 C60.02567094 13.996857 60.38598365 17.0175091 60.41992188 21.97070312 C60.42839142 22.65280853 60.43686096 23.33491394 60.44558716 24.03768921 C60.46891977 26.28573454 60.46997946 28.53309284 60.46875 30.78125 C60.47585946 32.35722115 60.4835596 33.93318974 60.49182129 35.50915527 C60.50526161 38.81444476 60.50683947 42.11949554 60.50097656 45.42480469 C60.49511422 49.62648456 60.52552803 53.82699537 60.56609344 58.02845001 C60.59217459 61.28708891 60.59482897 64.5454551 60.59120178 67.80418396 C60.59287748 69.35089528 60.6023679 70.89762138 60.62034607 72.44422913 C60.73564057 83.59899121 59.47540664 94.19789062 52.75 103.5625 C46.26639577 109.30933102 40.41654015 110.26686591 32 110 C31.94212216 106.37506666 31.9064458 102.75025143 31.875 99.125 C31.85824219 98.09246094 31.84148437 97.05992187 31.82421875 95.99609375 C31.81777344 95.00996094 31.81132813 94.02382812 31.8046875 93.0078125 C31.79421387 92.09660645 31.78374023 91.18540039 31.77294922 90.24658203 C32 88 32 88 34 86 C36.29633129 79.91538516 36.34210918 74.04902074 36.4140625 67.59765625 C36.43342865 66.51995468 36.4527948 65.44225311 36.4727478 64.33189392 C36.53225755 60.9088417 36.57881456 57.48575534 36.625 54.0625 C36.66320608 51.73370975 36.70225933 49.40493324 36.7421875 47.07617188 C36.83793564 41.38422687 36.92207218 35.69221574 37 30 C32.71 30 28.42 30 24 30 C24 55.08 24 80.16 24 106 C16.08 107.32 8.16 108.64 0 110 C0 83.6 0 57.2 0 30 C-3.3 30 -6.6 30 -10 30 C-10 55.41 -10 80.82 -10 107 C-31 110 -31 110 -34 110 C-34 76.01 -34 42.02 -34 7 C-22.78 7 -11.56 7 0 7 C0 4.69 0 2.38 0 0 Z " fill="#D4AF37" transform="translate(91,38)"/>
<path d="M0 0 C4.83358504 0.80559751 8.40024228 1.78172907 12.875 3.5625 C14.02742188 4.01753906 15.17984375 4.47257812 16.3671875 4.94140625 C17.67042969 5.46541016 17.67042969 5.46541016 19 6 C18.67 8.31 18.34 10.62 18 13 C27.57 13 37.14 13 47 13 C46.22287306 20.77126944 45.2279032 28.30513996 44 36 C38.72 36 33.44 36 28 36 C28.96035156 38.45566406 29.92070312 40.91132812 30.91015625 43.44140625 C35.08794914 54.16618507 39.16611776 64.92822673 43.21850586 75.70092773 C44.04158399 77.88629661 44.86683297 80.07084894 45.6940918 82.25463867 C46.90366579 85.44794239 48.10686088 88.64358229 49.30859375 91.83984375 C49.6803624 92.81783432 50.05213104 93.79582489 50.43516541 94.80345154 C50.7729451 95.70612259 51.11072479 96.60879364 51.45874023 97.53881836 C51.90672218 98.72646034 51.90672218 98.72646034 52.36375427 99.93809509 C53 102 53 102 53 105 C50.41958904 106.00816056 47.83613056 107.0067111 45.25 108 C44.52039063 108.28617187 43.79078125 108.57234375 43.0390625 108.8671875 C41.97558594 109.27324219 41.97558594 109.27324219 40.890625 109.6875 C40.24125977 109.93886719 39.59189453 110.19023437 38.92285156 110.44921875 C37 111 37 111 33 111 C31.02 106.05 29.04 101.1 27 96 C12.81 95.67 -1.38 95.34 -16 95 C-16.99 97.97 -17.98 100.94 -19 104 C-19.97381959 106.34438048 -20.96440702 108.68224427 -22 111 C-35.80356283 108.50361098 -35.80356283 108.50361098 -42 106 C-43 104 -43 104 -42.50419617 102.2885437 C-42.21236954 101.60148346 -41.92054291 100.91442322 -41.61987305 100.20654297 C-41.2913887 99.42251602 -40.96290436 98.63848907 -40.62446594 97.83070374 C-40.25725937 96.97649338 -39.8900528 96.12228302 -39.51171875 95.2421875 C-39.13730148 94.3542601 -38.76288422 93.4663327 -38.37712097 92.55149841 C-37.15440977 89.65624194 -35.92099574 86.76567615 -34.6875 83.875 C-33.8541941 81.9068269 -33.02167415 79.93832084 -32.18994141 77.96948242 C-30.54875733 74.08646166 -28.90404724 70.20496731 -27.25634766 66.32470703 C-24.43150552 59.6667946 -21.64804659 52.99213214 -18.875 46.3125 C-18.10167722 44.45437933 -17.32825483 42.59630012 -16.5546875 40.73828125 C-16.04164063 39.50464844 -15.52859375 38.27101562 -15 37 C-21.6 36.67 -28.2 36.34 -35 36 C-34.85987863 32.35386304 -34.71318602 28.70820211 -34.5625 25.0625 C-34.50352539 23.50112305 -34.50352539 23.50112305 -34.44335938 21.90820312 C-34.40146484 20.91884766 -34.35957031 19.92949219 -34.31640625 18.91015625 C-34.27974854 17.99371338 -34.24309082 17.07727051 -34.20532227 16.13305664 C-34 14 -34 14 -33 13 C-30.9291528 12.8415735 -28.85321971 12.74875578 -26.77734375 12.68359375 C-25.51728516 12.64169922 -24.25722656 12.59980469 -22.95898438 12.55664062 C-21.61849264 12.51682404 -20.2779978 12.47711186 -18.9375 12.4375 C-17.59308477 12.39431958 -16.2486834 12.35070544 -14.90429688 12.30664062 C-11.60299987 12.20014717 -8.30151421 12.0995325 -5 12 C-3.35 8.04 -1.7 4.08 0 0 Z " fill="#D4AF37" transform="translate(360,38)"/>
<path d="M0 0 C2.81878012 1.28174718 4.85241496 2.61007615 7.015625 4.8203125 C7.80839844 5.62275391 7.80839844 5.62275391 8.6171875 6.44140625 C9.15601563 6.99699219 9.69484375 7.55257812 10.25 8.125 C10.80429687 8.68832031 11.35859375 9.25164063 11.9296875 9.83203125 C13.29104485 11.21686028 14.64614859 12.60783204 16 14 C14.70641209 16.86269363 13.36852305 18.86053197 11.0949707 21.02099609 C10.21945305 21.86239639 10.21945305 21.86239639 9.32624817 22.72079468 C8.69909409 23.31566681 8.07194 23.91053894 7.42578125 24.5234375 C6.10539245 25.80393793 4.7857533 27.08521173 3.46679688 28.3671875 C1.38708904 30.37871222 -0.69732701 32.38433412 -2.79516602 34.37695312 C-4.8207647 36.30586849 -6.82364399 38.25612531 -8.82421875 40.2109375 C-9.45744553 40.80176117 -10.0906723 41.39258484 -10.74308777 42.00131226 C-12.36765269 43.60611805 -13.77358793 45.07376924 -15 47 C-15.01928561 50.91618436 -13.90967362 53.69581026 -11.92578125 57.0234375 C-11.50852783 57.73113281 -11.09127441 58.43882813 -10.66137695 59.16796875 C-10.21624756 59.89628906 -9.77111816 60.62460938 -9.3125 61.375 C-8.85770264 62.12652344 -8.40290527 62.87804687 -7.93432617 63.65234375 C-6.63660353 65.77710765 -5.32134451 67.88987211 -4 70 C-3.4225 70.94101563 -2.845 71.88203125 -2.25 72.8515625 C0.17932527 76.48234755 1.31298997 77.77099666 5.5625 79.1875 C9.33354024 78.9818069 10.91593068 78.05604621 14 76 C17 77 17 77 18.859375 80.45703125 C19.5009368 81.90387291 20.13069726 83.3559917 20.75 84.8125 C21.07871094 85.53759766 21.40742188 86.26269531 21.74609375 87.00976562 C22.05160156 87.71423828 22.35710937 88.41871094 22.671875 89.14453125 C22.9512793 89.78753174 23.23068359 90.43053223 23.51855469 91.09301758 C24.10793306 93.42751782 23.81344833 94.75329107 23 97 C21.546875 98.6328125 21.546875 98.6328125 19.75 100.125 C19.16734375 100.62257813 18.5846875 101.12015625 17.984375 101.6328125 C13.44851146 104.75791533 9.52192482 105.29471686 4.0625 105.3125 C2.87785156 105.32925781 1.69320312 105.34601563 0.47265625 105.36328125 C-6.74193103 104.6085494 -10.43448803 100.9965049 -14.96582031 95.67041016 C-18.56533301 90.94507772 -21.46561766 85.85656601 -24.375 80.6875 C-24.98988281 79.61693359 -25.60476563 78.54636719 -26.23828125 77.44335938 C-28.58725511 73.3390801 -30.92472341 69.25076899 -33 65 C-34.98 65.99 -34.98 65.99 -37 67 C-37.33 79.21 -37.66 91.42 -38 104 C-45.26 104 -52.52 104 -60 104 C-60 70.34 -60 36.68 -60 2 C-52.74 2 -45.48 2 -38 2 C-38 13.55 -38 25.1 -38 37 C-32.69670959 32.3596209 -27.60202391 27.74119193 -22.65625 22.75390625 C-22.00168823 22.09792953 -21.34712646 21.44195282 -20.67272949 20.76609802 C-18.61276177 18.70059855 -16.55632634 16.63162405 -14.5 14.5625 C-13.0913795 13.14885566 -11.68252733 11.73544214 -10.2734375 10.32226562 C-6.84627867 6.88416851 -3.42227981 3.44295344 0 0 Z " fill="#D4AF37" transform="translate(292,43)"/>
<path d="M0 0 C7.26 0 14.52 0 22 0 C22 23.1 22 46.2 22 70 C14.74 70 7.48 70 0 70 C0 46.9 0 23.8 0 0 Z " fill="#D4AF37" transform="translate(163,77)"/>
<path d="M0 0 C6.93 0 13.86 0 21 0 C21 23.1 21 46.2 21 70 C14.07 70 7.14 70 0 70 C0 46.9 0 23.8 0 0 Z " fill="#D4AF37" transform="translate(424,77)"/>
<path d="M0 0 C0.66 0 1.32 0 2 0 C3.71743884 4.48087102 5.42616803 8.9649297 7.12695312 13.45214844 C7.70660738 14.97779326 8.28862049 16.50254404 8.87304688 18.02636719 C9.71327319 20.21838618 10.54492995 22.41349322 11.375 24.609375 C11.63748535 25.2886908 11.8999707 25.96800659 12.17041016 26.66790771 C13.43567006 30.04034301 14 32.33896018 14 36 C4.76 36 -4.48 36 -14 36 C-13.11491783 31.57458914 -11.81532967 27.83467302 -10.05859375 23.73046875 C-9.77146011 23.04946609 -9.48432648 22.36846344 -9.18849182 21.66682434 C-8.27587966 19.5051638 -7.3567987 17.34632419 -6.4375 15.1875 C-5.81532525 13.71697872 -5.1935758 12.24627741 -4.57226562 10.77539062 C-3.05309327 7.18149081 -1.52811577 3.59010569 0 0 Z " fill="#D4AF37" transform="translate(366,80)"/>
<path d="M0 0 C3.02508145 1.73602105 5.41790069 3.83580137 7 7 C7.58118751 11.76383201 7.45088085 15.14488114 5.1875 19.4375 C2.97944946 22.02407349 1.34163854 23.76131899 -2.0859375 24.37109375 C-6.54279615 24.50038828 -8.3794666 24.49125561 -12 21.625 C-15.17037583 17.46388172 -15.38916553 14.69709472 -15.359375 9.55078125 C-14.78039966 5.44131496 -13.00085071 3.78650423 -10 1 C-6.77140153 -0.61429923 -3.49006347 -0.59570657 0 0 Z " fill="#D4AF37" transform="translate(438,166)"/>
<path d="M0 0 C3.5386994 1.65139305 4.81070153 2.71605229 7 6 C7.58190144 10.88192638 7.61701919 15.48830299 5.75 20.0625 C2.62267396 23.52489669 0.76422603 23.92721657 -3.9375 24.375 C-7.05283528 24.28797946 -8.06535728 23.96163812 -10.875 22.3125 C-13.72333196 19.21284463 -14.93448797 17.11565333 -15.06640625 12.85546875 C-14.82781714 8.49579507 -14.38322079 6.47165636 -11.5625 3 C-7.5047065 -0.16705834 -5.16385214 -0.35009167 0 0 Z " fill="#D4AF37" transform="translate(371,166)"/>
<path d="M0 0 C3.58552881 1.63687185 4.79315055 2.68972583 7 6 C7.73965025 10.59271203 7.60961194 14.02462089 5.125 18 C1.43417145 21.47372099 -1.59363461 21.41353312 -6.51171875 21.328125 C-9 21 -9 21 -12.125 19.125 C-14.76174026 14.7304329 -14.91219098 11.00472351 -14 6 C-10.37239704 0.07491517 -6.72377205 -0.73561422 0 0 Z " fill="#D4AF37" transform="translate(438,47)"/>
<path d="M0 0 C4.39632503 2.27666832 4.39632503 2.27666832 6 5 C7.10524252 10.3035738 6.88447049 14.49640017 4.125 19.1875 C-0.28316998 21.74423859 -4.01995908 21.89951478 -9 21 C-12.55680172 18.89495409 -13.69468936 17.91593192 -15 14 C-15.66611433 8.11599006 -15.66611433 8.11599006 -13.953125 5.24609375 C-9.84412547 0.23069726 -6.3972214 -0.98327662 0 0 Z " fill="#D4AF37" transform="translate(178,47)"/>
<path d="M0 0 C3.5386994 1.65139305 4.81070153 2.71605229 7 6 C7.58190144 10.88192638 7.61701919 15.48830299 5.75 20.0625 C2.62267396 23.52489669 0.76422603 23.92721657 -3.9375 24.375 C-7.05283528 24.28797946 -8.06535728 23.96163812 -10.875 22.3125 C-13.72333196 19.21284463 -14.93448797 17.11565333 -15.06640625 12.85546875 C-14.82781714 8.49579507 -14.38322079 6.47165636 -11.5625 3 C-7.5047065 -0.16705834 -5.16385214 -0.35009167 0 0 Z M-9.375 4.375 C-11.83244866 8.34472475 -11.80971291 12.44810038 -11 17 C-9.83421835 19.33095166 -9.83421835 19.33095166 -8 21 C-5.29375396 21.69292993 -2.74101787 21.48640192 0 21 C2.17476401 19.45661909 2.81832637 18.36334727 4 16 C4.41329761 12.9415977 4.47718082 10.05287274 4 7 C1.4323911 3.90376574 -0.11369394 3.14470303 -4.0625 2.5 C-7.02110796 2.82792188 -7.02110796 2.82792188 -9.375 4.375 Z " fill="#D4AF37" transform="translate(371,166)"/>
<path d="M0 0 C3.02508145 1.73602105 5.41790069 3.83580137 7 7 C7.58118751 11.76383201 7.45088085 15.14488114 5.1875 19.4375 C2.97944946 22.02407349 1.34163854 23.76131899 -2.0859375 24.37109375 C-6.54279615 24.50038828 -8.3794666 24.49125561 -12 21.625 C-15.17037583 17.46388172 -15.38916553 14.69709472 -15.359375 9.55078125 C-14.78039966 5.44131496 -13.00085071 3.78650423 -10 1 C-6.77140153 -0.61429923 -3.49006347 -0.59570657 0 0 Z M-12 8 C-12.97383359 12.2001866 -12.41597124 15.16805752 -10.5 19 C-7.86939611 21.10448312 -7.15374106 21.3578457 -3.9375 21.5 C-0.16075749 21.32187857 -0.16075749 21.32187857 1.9375 19.6875 C4.33266098 15.88342079 4.45292843 12.37830816 4 8 C1.55401113 4.61878009 0.10703441 3.23063217 -4 2.375 C-8.14182881 3.237881 -9.56226471 4.55849135 -12 8 Z " fill="#D4AF37" transform="translate(438,166)"/>
<path d="M0 0 C0.99 0 1.98 0 3 0 C3.33 3.3 3.66 6.6 4 10 C5.01320313 8.89978516 5.01320313 8.89978516 6.046875 7.77734375 C6.93890625 6.84019531 7.8309375 5.90304688 8.75 4.9375 C9.63171875 3.99777344 10.5134375 3.05804688 11.421875 2.08984375 C14 0 14 0 16.328125 0.19140625 C17.15570313 0.59166016 17.15570313 0.59166016 18 1 C16.88121617 2.17262904 15.75476949 3.33795138 14.625 4.5 C13.99851562 5.1496875 13.37203125 5.799375 12.7265625 6.46875 C11 8 11 8 9 8 C11.97 12.29 14.94 16.58 18 21 C16.68 21.33 15.36 21.66 14 22 C11.69 18.7 9.38 15.4 7 12 C3.87393036 13.60480784 3.87393036 13.60480784 3.48828125 15.9453125 C3.43027344 16.66460937 3.37226563 17.38390625 3.3125 18.125 C3.209375 19.40375 3.10625 20.6825 3 22 C2.01 22 1.02 22 0 22 C0 14.74 0 7.48 0 0 Z " fill="#D4AF37" transform="translate(382,167)"/>
<path d="M0 0 C5.94 0 11.88 0 18 0 C18 0.99 18 1.98 18 3 C15.69 3 13.38 3 11 3 C11 9.6 11 16.2 11 23 C9.68 22.67 8.36 22.34 7 22 C7 15.73 7 9.46 7 3 C4.69 3 2.38 3 0 3 C0 2.01 0 1.02 0 0 Z " fill="#D4AF37" transform="translate(337,167)"/>
<path d="M0 0 C2.70438996 0.36405249 3.74406383 0.68142682 5.484375 2.84765625 C5.90203125 3.57855469 6.3196875 4.30945313 6.75 5.0625 C7.39195312 6.16271484 7.39195312 6.16271484 8.046875 7.28515625 C8.36140625 7.85105469 8.6759375 8.41695312 9 9 C11.40072955 6.11912454 13.47291037 3.43595166 15 0 C16.32 0.33 17.64 0.66 19 1 C18.50628906 1.66644531 18.01257813 2.33289063 17.50390625 3.01953125 C12.84082213 9.7279923 10.88913552 14.81186645 11 23 C10.01 23 9.02 23 8 23 C8.00902344 22.40574219 8.01804687 21.81148437 8.02734375 21.19921875 C7.77648249 14.18601044 5.51357041 9.94075164 1.49609375 4.25 C0 2 0 2 0 0 Z " fill="#D4AF37" transform="translate(402,167)"/>
<path d="M0 0 C1.32 0.33 2.64 0.66 4 1 C2.88121617 2.17262904 1.75476949 3.33795138 0.625 4.5 C-0.00148438 5.1496875 -0.62796875 5.799375 -1.2734375 6.46875 C-3 8 -3 8 -5 8 C-2.03 12.29 0.94 16.58 4 21 C2.68 21.33 1.36 21.66 0 22 C-0.72316406 20.9171875 -0.72316406 20.9171875 -1.4609375 19.8125 C-2.09257812 18.884375 -2.72421875 17.95625 -3.375 17 C-4.31472656 15.6078125 -4.31472656 15.6078125 -5.2734375 14.1875 C-6.12808594 13.1046875 -6.12808594 13.1046875 -7 12 C-7.66 12 -8.32 12 -9 12 C-7.55575365 8.76138697 -5.74227753 6.38030837 -3.375 3.75 C-2.74335938 3.04359375 -2.11171875 2.3371875 -1.4609375 1.609375 C-0.97882813 1.07828125 -0.49671875 0.5471875 0 0 Z " fill="#D4AF37" transform="translate(396,167)"/>
<path d="M0 0 C1.32 0.33 2.64 0.66 4 1 C2.515 3.475 2.515 3.475 1 6 C-0.32 5.67 -1.64 5.34 -3 5 C-2.01 3.35 -1.02 1.7 0 0 Z " fill="#D4AF37" transform="translate(417,167)"/>
<path d="M0 0 C0.33 0.99 0.66 1.98 1 3 C0.01 3.99 -0.98 4.98 -2 6 C-2.99 5.67 -3.98 5.34 -5 5 C-3.35 3.35 -1.7 1.7 0 0 Z " fill="#D4AF37" transform="translate(442,183)"/>
</svg>
